<?xml version="1.0" standalone="no"?>
<!DOCTYPE svg PUBLIC "-//W3C//DTD SVG 20010904//EN"
 "http://www.w3.org/TR/2001/REC-SVG-20010904/DTD/svg10.dtd">
<svg version="1.0" xmlns="http://www.w3.org/2000/svg"
 width="182.000000pt" height="178.000000pt" viewBox="0 0 182.000000 178.000000"
 preserveAspectRatio="xMidYMid meet">

<g transform="translate(0.000000,178.000000) scale(0.100000,-0.100000)"
fill="#000000" stroke="none">
<path d="M0 890 l0 -890 910 0 910 0 0 890 0 890 -910 0 -910 0 0 -890z m1515
775 c68 -33 120 -85 154 -155 l26 -55 0 -560 c0 -551 0 -561 -21 -606 -30 -64
-88 -125 -148 -157 l-51 -27 -550 -3 c-618 -3 -605 -4 -703 70 -41 30 -61 55
-83 102 l-29 61 0 566 0 565 26 52 c30 61 111 136 169 156 33 12 141 15 598
15 l558 1 54 -25z"/>
<path d="M674 1315 c-10 -8 -38 -24 -62 -35 -23 -10 -64 -43 -90 -72 -26 -29
-77 -84 -113 -123 -171 -181 -205 -241 -196 -351 8 -110 62 -196 156 -252 35
-20 61 -27 127 -30 71 -4 89 -1 135 20 30 14 68 37 86 52 40 33 90 134 99 199
l6 48 82 -3 81 -3 7 -57 c13 -105 66 -180 160 -227 52 -27 72 -31 138 -31 88
0 152 26 214 86 57 55 79 107 84 199 4 70 1 87 -21 135 -14 30 -36 66 -49 80
-13 14 -74 81 -137 150 -134 148 -165 177 -202 185 -15 3 -35 15 -45 26 -25
28 -94 26 -122 -4 -19 -20 -22 -36 -24 -137 l-3 -115 -82 -3 -83 -3 0 110 c0
103 -1 111 -26 140 -20 24 -34 31 -63 31 -20 0 -46 -7 -57 -15z m82 -40 c10
-8 14 -15 8 -15 -5 0 -19 7 -30 15 -10 8 -14 15 -8 15 5 0 19 -7 30 -15z m311
-2 c-9 -9 -20 -13 -24 -9 -4 4 -1 11 7 16 25 16 35 11 17 -7z m-354 -44 c37
-17 57 -60 57 -123 0 -55 0 -56 -29 -56 -42 0 -46 -14 -16 -57 34 -50 32 -57
-7 -21 -54 50 -106 71 -190 76 -43 2 -78 7 -78 9 0 5 88 101 138 150 36 35 79
43 125 22z m560 -81 l87 -93 -82 -6 c-95 -7 -145 -28 -201 -85 -44 -46 -50
-33 -7 16 39 47 39 68 -2 72 l-33 3 0 63 c0 59 3 66 33 93 25 22 42 29 75 29
40 0 46 -4 130 -92z m-659 -163 c49 -21 103 -71 129 -119 29 -54 30 -174 3
-226 -44 -84 -145 -150 -229 -150 -86 0 -186 58 -227 133 -34 60 -39 168 -11
227 27 56 36 68 87 108 68 52 162 63 248 27z m406 13 c-1 -7 -7 -24 -15 -38
-8 -14 -14 -51 -15 -82 l0 -58 -85 0 -85 0 0 33 c0 31 -16 94 -35 140 -7 16 3
17 114 17 90 0 121 -3 121 -12z m394 -27 c86 -46 146 -162 132 -256 -22 -143
-177 -250 -313 -216 -136 35 -226 178 -194 307 23 92 103 172 194 195 50 12
127 -1 181 -30z"/>
<path d="M446 954 c-96 -35 -146 -104 -146 -201 1 -107 63 -190 161 -213 64
-16 119 -5 176 33 63 43 88 94 88 177 -1 113 -63 189 -174 210 -63 12 -56 12
-105 -6z m149 -57 c82 -47 111 -163 60 -240 -46 -67 -147 -97 -213 -63 -101
53 -129 176 -60 261 56 67 139 84 213 42z"/>
<path d="M498 874 c-18 -17 -6 -34 30 -43 38 -11 72 -51 72 -85 0 -9 8 -16 20
-16 34 0 27 63 -12 105 -32 35 -93 56 -110 39z"/>
<path d="M1249 960 c-83 -15 -161 -93 -173 -173 -18 -117 53 -223 165 -248
134 -31 262 72 262 210 0 138 -118 236 -254 211z m98 -51 c63 -23 113 -95 113
-161 0 -85 -83 -168 -168 -168 -91 0 -172 79 -172 169 0 115 121 200 227 160z"/>
<path d="M1273 864 c-6 -17 12 -34 38 -34 22 0 57 -40 61 -70 2 -17 10 -26 26
-28 51 -7 12 102 -47 133 -39 19 -70 19 -78 -1z"/>
</g>
</svg>
